<?xml version="1.0" encoding="UTF-8" standalone="no"?>
<svg xmlns="http://www.w3.org/2000/svg" viewBox="0 0 600 350">
  <!-- Dark gradient background -->
  <defs>
    <linearGradient id="bgGradient" x1="0%" y1="0%" x2="100%" y2="0%">
      <stop offset="0%" style="stop-color:#0a0e17;stop-opacity:1" />
      <stop offset="100%" style="stop-color:#1a2b36;stop-opacity:1" />
    </linearGradient>
    <linearGradient id="glowGradient" x1="0%" y1="0%" x2="100%" y2="100%">
      <stop offset="0%" style="stop-color:#00e2ff;stop-opacity:0.6" />
      <stop offset="100%" style="stop-color:#00a0b0;stop-opacity:0.4" />
    </linearGradient>
  </defs>
  
  <!-- Background -->
  <rect width="600" height="350" fill="url(#bgGradient)"/>
  
  <!-- Geometric network structure -->
  <g stroke="#00e2ff" stroke-width="1" fill="none">
    <!-- Main structure -->
    <line x1="300" y1="60" x2="180" y2="150" opacity="0.8" />
    <line x1="300" y1="60" x2="360" y2="150" opacity="0.8" />
    <line x1="300" y1="60" x2="450" y2="180" opacity="0.5" />
    <line x1="180" y1="150" x2="360" y2="150" opacity="0.8" />
    <line x1="180" y1="150" x2="250" y2="250" opacity="0.8" />
    <line x1="180" y1="150" x2="120" y2="280" opacity="0.6" />
    <line x1="360" y1="150" x2="250" y2="250" opacity="0.8" />
    <line x1="360" y1="150" x2="450" y2="180" opacity="0.7" />
    <line x1="250" y1="250" x2="120" y2="280" opacity="0.7" />
    <line x1="250" y1="250" x2="300" y2="300" opacity="0.8" />
    <line x1="120" y1="280" x2="300" y2="300" opacity="0.6" />
    <line x1="450" y1="180" x2="300" y2="300" opacity="0.5" />
  </g>
  
  <!-- Nodes -->
  <circle cx="300" cy="60" r="8" fill="#00e2ff" />
  <circle cx="180" cy="150" r="8" fill="#00e2ff" />
  <circle cx="360" cy="150" r="8" fill="#00e2ff" />
  <circle cx="450" cy="180" r="8" fill="#00e2ff" />
  <circle cx="250" cy="250" r="8" fill="#00e2ff" />
  <circle cx="120" cy="280" r="8" fill="#00e2ff" />
  <circle cx="300" cy="300" r="8" fill="#00e2ff" />
  
  <!-- Financial chart elements -->
  <g transform="translate(180, 150) scale(0.6)">
    <!-- Candlestick chart elements -->
    <line x1="0" y1="20" x2="0" y2="80" stroke="#00e2ff" stroke-width="2" />
    <rect x="-6" y="30" width="12" height="40" fill="#00e2ff" fill-opacity="0.3" stroke="#00e2ff" stroke-width="1" />
    
    <line x1="20" y1="10" x2="20" y2="90" stroke="#00e2ff" stroke-width="2" />
    <rect x="14" y="50" width="12" height="30" fill="#00e2ff" fill-opacity="0.3" stroke="#00e2ff" stroke-width="1" />
    
    <line x1="40" y1="30" x2="40" y2="70" stroke="#00e2ff" stroke-width="2" />
    <rect x="34" y="40" width="12" height="20" fill="#00e2ff" fill-opacity="0.3" stroke="#00e2ff" stroke-width="1" />
    
    <line x1="60" y1="5" x2="60" y2="95" stroke="#00e2ff" stroke-width="2" />
    <rect x="54" y="15" width="12" height="70" fill="#00e2ff" fill-opacity="0.3" stroke="#00e2ff" stroke-width="1" />
    
    <line x1="80" y1="25" x2="80" y2="75" stroke="#00e2ff" stroke-width="2" />
    <rect x="74" y="35" width="12" height="30" fill="#00e2ff" fill-opacity="0.3" stroke="#00e2ff" stroke-width="1" />
  </g>
  
  <!-- Small particle effects -->
  <circle cx="270" cy="100" r="3" fill="#00e2ff" opacity="0.6" />
  <circle cx="400" cy="130" r="2" fill="#00e2ff" opacity="0.5" />
  <circle cx="350" cy="280" r="3" fill="#00e2ff" opacity="0.6" />
  <circle cx="220" cy="200" r="2" fill="#00e2ff" opacity="0.7" />
  <circle cx="430" cy="240" r="3" fill="#00e2ff" opacity="0.5" />
  <circle cx="150" cy="230" r="2" fill="#00e2ff" opacity="0.6" />
  <circle cx="390" cy="200" r="4" fill="#00e2ff" opacity="0.4" />
  <circle cx="200" cy="300" r="3" fill="#00e2ff" opacity="0.5" />
  <circle cx="320" cy="190" r="2" fill="#00e2ff" opacity="0.7" />
  <circle cx="180" cy="110" r="4" fill="#00e2ff" opacity="0.4" />
</svg>